<svg width="34" height="34" viewBox="0 0 34 34" fill="none" xmlns="http://www.w3.org/2000/svg">
<rect x="0.205078" y="0.11084" width="33.1872" height="33.1872" rx="7.11154" fill="white" fill-opacity="0.1"/>
<path d="M9.25642 17.4823H15.611V23.8369C15.611 24.4827 16.1423 25.0244 16.7985 25.0244C17.4548 25.0244 17.9861 24.4827 17.9861 23.8369V17.4823H24.3407C24.9865 17.4823 25.5282 16.951 25.5282 16.2948C25.5282 15.6385 24.9865 15.1072 24.3407 15.1072H17.9861V8.75264C17.9861 8.10676 17.4548 7.56506 16.7985 7.56506C16.1423 7.56506 15.611 8.10676 15.611 8.75264V15.1072H9.25642C8.61055 15.1072 8.06885 15.6385 8.06885 16.2948C8.06885 16.951 8.61055 17.4823 9.25642 17.4823Z" fill="white" fill-opacity="0.8"/>
</svg>
