<svg width="21" height="21" viewBox="0 0 21 21" fill="none" xmlns="http://www.w3.org/2000/svg">
<path d="M19.875 19.875L13.625 13.625M15.7083 8.41667C15.7083 9.37422 15.5197 10.3224 15.1533 11.2071C14.7868 12.0917 14.2497 12.8956 13.5727 13.5727C12.8956 14.2497 12.0917 14.7868 11.2071 15.1533C10.3224 15.5197 9.37422 15.7083 8.41667 15.7083C7.45911 15.7083 6.51093 15.5197 5.62627 15.1533C4.7416 14.7868 3.93777 14.2497 3.26068 13.5727C2.58359 12.8956 2.04649 12.0917 1.68005 11.2071C1.3136 10.3224 1.125 9.37422 1.125 8.41667C1.125 6.4828 1.89323 4.62813 3.26068 3.26068C4.62813 1.89323 6.4828 1.125 8.41667 1.125C10.3505 1.125 12.2052 1.89323 13.5727 3.26068C14.9401 4.62813 15.7083 6.4828 15.7083 8.41667Z" stroke="white" stroke-opacity="0.6" stroke-width="1.66667" stroke-linecap="round" stroke-linejoin="round"/>
</svg>
