<svg width="24" height="21" viewBox="0 0 24 21" fill="none" xmlns="http://www.w3.org/2000/svg">
<path d="M16.5248 3.2679C16.8979 3.2004 17.25 3.43727 17.25 3.7554V6.26384C17.25 6.55821 17.0036 6.81259 16.6586 6.87478L13.236 7.49196C12.9525 7.54321 12.75 7.75227 12.75 7.99415C12.75 7.99415 12.75 11.6295 12.75 13.8832C12.75 16.137 11.4154 17.0063 9.72263 17.0063C7.86375 17.0063 7.125 16.0842 7.125 15.3607C7.125 13.8973 8.35538 13.4257 9.72263 13.1904C11.0899 12.9551 11.25 12.9035 11.25 12.3604C11.25 11.8173 11.25 4.72321 11.25 4.72321C11.25 4.42884 11.4964 4.17446 11.8414 4.11227L16.5248 3.2679Z" fill="#FF293F"/>
</svg>
