<svg width="23" height="17" viewBox="0 0 23 17" fill="none" xmlns="http://www.w3.org/2000/svg">
<path d="M20.6635 6.13628C19.8085 5.78315 18.8948 5.63628 18.1398 5.58065C18.0798 5.47753 18.0198 5.37503 17.9585 5.27315C17.7973 5.00253 17.6442 4.7469 17.5192 4.48565C16.2817 1.9019 14.411 0.805028 11.8073 1.1394C11.4554 1.18378 11.0423 1.0919 10.6042 0.994403C10.3092 0.928778 10.0048 0.860653 9.68791 0.826903C7.68541 0.614403 6.28979 1.22378 5.41479 2.68815C5.00354 3.3769 4.55041 4.06378 4.11229 4.72815C3.91229 5.03128 3.71166 5.33503 3.51479 5.6394C3.51166 5.6444 3.51166 5.65128 3.50791 5.65628C2.64041 5.8219 1.77104 6.23878 1.20041 6.79253C0.284789 7.68128 -0.115836 8.72565 0.0410391 9.81253C0.242289 11.2094 1.35354 12.5082 3.16729 13.4788C3.16729 13.4788 3.16791 13.4807 3.16854 13.4819C3.81854 14.6219 4.62041 16.0307 6.46291 16.0307C6.53854 16.0307 6.61541 16.0282 6.69416 16.0232C8.04916 15.9406 8.96666 15.1688 9.43666 13.745L13.351 13.5944C13.3698 13.6338 13.3892 13.6694 13.4079 13.7094C13.5729 14.0607 13.7592 14.4582 14.0804 14.7807C14.7285 15.4325 15.4642 15.7719 16.2198 15.7719C16.2942 15.7719 16.3692 15.7688 16.4435 15.7619C17.5129 15.6675 18.5435 14.9225 19.5079 13.5557C20.8654 13.3944 22.366 12.8882 22.6492 10.7763C22.9617 8.44378 22.2567 6.79565 20.6635 6.13628ZM6.48791 3.3294C7.11229 2.28503 8.02916 1.91003 9.55541 2.07003C9.80166 2.09628 10.0592 2.15378 10.3323 2.2144C10.856 2.3319 11.3998 2.45253 11.966 2.3794C14.0217 2.1169 15.3892 2.93315 16.3917 5.0269C16.4779 5.20565 16.5717 5.37628 16.6673 5.54315C13.1335 5.50253 9.10229 5.48003 5.06104 5.5594C5.09229 5.5119 5.12354 5.46378 5.15479 5.41628C5.60104 4.74065 6.06229 4.0419 6.48791 3.3294ZM6.61791 14.7757C5.53166 14.845 5.02979 14.1975 4.38354 13.0863C5.13541 11.3132 5.82854 11.3638 6.64729 11.6225C7.56604 11.9113 8.07854 12.405 8.30104 13.2182C8.00041 14.2544 7.49354 14.7219 6.61791 14.7757ZM16.3335 14.5169C15.871 14.5582 15.4142 14.3494 14.966 13.8994C14.7979 13.7307 14.6667 13.45 14.5398 13.1794C14.5167 13.13 14.4935 13.0807 14.4704 13.0325C15.0117 11.9894 15.8504 11.5294 17.2604 11.4963L18.3404 13.0425C17.6554 13.9525 16.9654 14.4607 16.3335 14.5169ZM21.4104 10.61C21.2642 11.7044 20.7304 12.1469 19.3548 12.3119L18.0985 10.5119C17.9835 10.3482 17.7979 10.2494 17.5973 10.245C15.5785 10.2125 14.2442 10.8832 13.4335 12.3413L9.37604 12.4975C8.98291 11.4832 8.20854 10.8038 7.02166 10.43C5.05291 9.81128 4.04604 10.9044 3.42041 12.185C2.18354 11.4469 1.40666 10.5338 1.27729 9.6344C1.17854 8.95065 1.44604 8.29628 2.07041 7.6894C2.56729 7.2069 3.47479 6.84378 4.22854 6.82628C8.84604 6.71815 13.511 6.75378 17.466 6.80253C18.501 6.81565 19.4417 6.9844 20.186 7.29128C21.4923 7.83253 21.5729 9.39503 21.4104 10.61Z" fill="white"/>
</svg>
