<svg width="26" height="24" viewBox="0 0 26 24" fill="none" xmlns="http://www.w3.org/2000/svg">
<path d="M7.80929 23.8526C8.44967 23.8526 8.92152 23.538 9.69671 22.8527L13.5502 19.4598H20.3135C23.6951 19.4598 25.5938 17.505 25.5938 14.1683V5.43899C25.5938 2.10229 23.6951 0.147461 20.3135 0.147461H5.98927C2.61888 0.147461 0.708984 2.10229 0.708984 5.43899V14.1683C0.708984 17.5162 2.67505 19.4598 5.91063 19.4598H6.37125V22.2123C6.37125 23.2122 6.89928 23.8526 7.80929 23.8526ZM8.37102 21.336V18.1342C8.37102 17.4713 8.07892 17.2129 7.44978 17.2129H6.06792C3.9558 17.2129 2.94468 16.1456 2.94468 14.1009V5.50639C2.94468 3.46169 3.9558 2.39439 6.06792 2.39439H20.2461C22.3469 2.39439 23.3581 3.46169 23.3581 5.50639V14.1009C23.3581 16.1456 22.3469 17.2129 20.2461 17.2129H13.4266C12.7413 17.2129 12.4043 17.3253 11.9324 17.8196L8.37102 21.336ZM7.84299 8.67457C7.84299 9.93285 8.64066 10.9103 9.87647 10.9103C10.3596 10.9103 10.8202 10.7979 11.1123 10.4496H11.2471C10.8876 11.3035 10.0787 11.8989 9.25856 12.1011C8.87658 12.2023 8.74177 12.382 8.74177 12.6516C8.74177 12.9437 8.98893 13.1572 9.31473 13.1572C10.4831 13.1572 12.6402 11.7641 12.6402 9.12396C12.6402 7.58481 11.6628 6.39393 10.1798 6.39393C8.84288 6.39393 7.84299 7.33764 7.84299 8.67457ZM13.7524 8.67457C13.7524 9.93285 14.5501 10.9103 15.7859 10.9103C16.2802 10.9103 16.7408 10.7979 17.0329 10.4496H17.1565C16.797 11.3035 15.9881 11.8989 15.168 12.1011C14.7972 12.2023 14.6624 12.382 14.6624 12.6516C14.6624 12.9437 14.8984 13.1572 15.2242 13.1572C16.3926 13.1572 18.5496 11.7641 18.5496 9.12396C18.5496 7.58481 17.5722 6.39393 16.0892 6.39393C14.7523 6.39393 13.7524 7.33764 13.7524 8.67457Z" fill="black"/>
</svg>
