<svg width="27" height="28" viewBox="0 0 27 28" fill="none" xmlns="http://www.w3.org/2000/svg">
<path d="M15.3774 5.20519L19.8982 9.64039C21.3051 8.28347 21.392 6.46907 20.001 5.11215C18.6099 3.75522 16.7684 3.82501 15.3774 5.20519ZM14.5238 6.05036C13.7018 6.84901 13.3304 7.77947 13.4331 8.69443L6.09859 16.4173C5.78245 16.7584 5.75083 17.1926 6.13811 17.6113L5.08694 18.9217C4.96048 19.0768 4.96838 19.3094 5.13436 19.4723L5.36356 19.6971C5.52953 19.86 5.75874 19.8755 5.93262 19.7359L7.26832 18.7046C7.6714 19.0846 8.12981 19.0536 8.46176 18.7434L12.3898 15.1611V19.3482C12.3898 19.7902 12.7455 20.1313 13.196 20.1313C13.6465 20.1313 14.0022 19.7902 14.0022 19.3482V14.7734L13.9468 13.7499L16.3416 11.5711C17.2663 11.6641 18.2306 11.292 19.0367 10.4856L14.5238 6.05036ZM7.07863 17.0841L13.9231 10.0126C14.0575 10.2142 14.2156 10.408 14.4052 10.5941C14.587 10.7802 14.7846 10.943 14.9822 11.0749L7.79786 17.7897L7.07863 17.0841Z" fill="#FF293F"/>
</svg>
