<svg width="30" height="30" viewBox="0 0 30 30" fill="none" xmlns="http://www.w3.org/2000/svg">
<path d="M13 12.46C12.7239 12.46 12.5 12.6838 12.5 12.96V16.96C12.5 17.2361 12.7239 17.46 13 17.46C13.2761 17.46 13.5 17.2361 13.5 16.96V12.96C13.5 12.6838 13.2761 12.46 13 12.46Z" fill="#FF293F"/>
<path d="M14.5 11.96C14.5 11.6838 14.7239 11.46 15 11.46C15.2761 11.46 15.5 11.6838 15.5 11.96V17.96C15.5 18.2361 15.2761 18.46 15 18.46C14.7239 18.46 14.5 18.2361 14.5 17.96V11.96Z" fill="#FF293F"/>
<path d="M11 13.96C10.7239 13.96 10.5 14.1838 10.5 14.46V15.46C10.5 15.7361 10.7239 15.96 11 15.96C11.2761 15.96 11.5 15.7361 11.5 15.46V14.46C11.5 14.1838 11.2761 13.96 11 13.96Z" fill="#FF293F"/>
<path d="M16.5 12.96C16.5 12.6838 16.7239 12.46 17 12.46C17.2761 12.46 17.5 12.6838 17.5 12.96V16.96C17.5 17.2361 17.2761 17.46 17 17.46C16.7239 17.46 16.5 17.2361 16.5 16.96V12.96Z" fill="#FF293F"/>
<path d="M19 13.96C18.7239 13.96 18.5 14.1838 18.5 14.46V15.46C18.5 15.7361 18.7239 15.96 19 15.96C19.2761 15.96 19.5 15.7361 19.5 15.46V14.46C19.5 14.1838 19.2761 13.96 19 13.96Z" fill="#FF293F"/>
<path fill-rule="evenodd" clip-rule="evenodd" d="M24.5 14.96C24.5 20.2067 20.2467 24.46 15 24.46C9.75329 24.46 5.5 20.2067 5.5 14.96C5.5 9.71326 9.75329 5.45996 15 5.45996C20.2467 5.45996 24.5 9.71326 24.5 14.96ZM23.6 14.96C23.6 19.7096 19.7496 23.56 15 23.56C10.2504 23.56 6.4 19.7096 6.4 14.96C6.4 10.2103 10.2504 6.35996 15 6.35996C19.7496 6.35996 23.6 10.2103 23.6 14.96Z" fill="#FF293F"/>
</svg>
