<svg width="20" height="20" viewBox="0 0 20 20" fill="none" xmlns="http://www.w3.org/2000/svg">
<path d="M10.169 10.957C11.3774 10.957 12.2703 10.0522 12.2703 8.73065V4.71851C12.2703 3.397 11.3774 2.49219 10.169 2.49219C8.96058 2.49219 8.06767 3.397 8.06767 4.71851V8.73065C8.06767 10.0522 8.96058 10.957 10.169 10.957ZM5.62109 8.86756C5.62109 11.332 7.2581 13.0166 9.61538 13.2428V14.4512H7.43073C7.11523 14.4512 6.85331 14.7012 6.85331 15.0167C6.85331 15.3263 7.11523 15.5822 7.43073 15.5822H12.9072C13.2227 15.5822 13.4847 15.3263 13.4847 15.0167C13.4847 14.7012 13.2227 14.4512 12.9072 14.4512H10.7226V13.2428C13.0799 13.0166 14.7169 11.332 14.7169 8.86756V7.69487C14.7169 7.37938 14.4669 7.13531 14.1514 7.13531C13.8359 7.13531 13.574 7.37938 13.574 7.69487V8.82589C13.574 10.8558 12.1989 12.1892 10.169 12.1892C8.1391 12.1892 6.76402 10.8558 6.76402 8.82589V7.69487C6.76402 7.37938 6.50805 7.13531 6.19256 7.13531C5.87706 7.13531 5.62109 7.37938 5.62109 7.69487V8.86756Z" fill="white" fill-opacity="0.54"/>
</svg>
