<svg width="33" height="32" viewBox="0 0 33 32" fill="none" xmlns="http://www.w3.org/2000/svg">
<path d="M20.4952 22.1692C18.3924 22.1692 16.4239 21.346 14.9634 19.9487" stroke="white" stroke-width="2" stroke-linecap="round" stroke-linejoin="round"/>
<path d="M8.70161 8.90513C6.8803 7.18263 4.43711 6.16919 1.82861 6.16919" stroke="white" stroke-width="2" stroke-linecap="round" stroke-linejoin="round"/>
<path d="M31.7911 25.5027C32.4 25.1086 32.4 24.2176 31.7911 23.8236L23.2645 18.3059C22.5991 17.8753 21.7212 18.3529 21.7212 19.1454V30.1808C21.7212 30.9734 22.5991 31.451 23.2645 31.0204L31.7911 25.5027Z" fill="white"/>
<path d="M21.7213 6.72064H21.4417C18.1766 6.72064 15.2391 8.70494 14.0201 11.734L10.9506 19.3616C9.73166 22.3906 6.79418 24.3749 3.52904 24.3749H1.82861" stroke="white" stroke-width="2" stroke-linecap="round" stroke-linejoin="round"/>
<path d="M30.3702 7.84837C30.9791 7.45431 30.9791 6.56334 30.3702 6.16928L21.8436 0.651564C21.1782 0.220996 20.3003 0.698587 20.3003 1.49111V12.5265C20.3003 13.3191 21.1782 13.7967 21.8436 13.3661L30.3702 7.84837Z" fill="white"/>
</svg>
