<svg width="34" height="20" viewBox="0 0 34 20" fill="none" xmlns="http://www.w3.org/2000/svg">
<path d="M15.2675 19.4283C16.3034 19.4283 17.1745 18.6396 17.1745 17.2034V10.423C17.3275 10.988 17.7513 11.4707 18.4576 11.8827L30.5235 18.9692C31.0297 19.2753 31.477 19.4283 31.995 19.4283C33.0309 19.4283 33.902 18.6396 33.902 17.2034V2.68901C33.902 1.25287 33.0309 0.464172 31.995 0.464172C31.477 0.464172 31.0297 0.617204 30.5235 0.923266L18.4576 8.00979C17.7513 8.4218 17.3275 8.89267 17.1745 9.45771V2.68901C17.1745 1.25287 16.3152 0.464172 15.2793 0.464172C14.7495 0.464172 14.314 0.617204 13.796 0.923266L1.7301 8.00979C0.835453 8.53952 0.399902 9.13987 0.399902 9.94034C0.399902 10.729 0.847225 11.3647 1.7301 11.8827L13.796 18.9692C14.3022 19.2753 14.7495 19.4283 15.2675 19.4283Z" fill="black"/>
</svg>
