<svg width="37" height="37" viewBox="0 0 37 37" fill="none" xmlns="http://www.w3.org/2000/svg">
<rect x="0.878418" y="0.705078" width="35.5577" height="35.5577" rx="17.7789" fill="white" fill-opacity="0.1"/>
<path d="M13.3238 17.2988C12.3459 17.2988 11.5459 18.0989 11.5459 19.0767C11.5459 20.0545 12.3459 20.8546 13.3238 20.8546C14.3016 20.8546 15.1017 20.0545 15.1017 19.0767C15.1017 18.0989 14.3016 17.2988 13.3238 17.2988ZM23.9911 17.2988C23.0133 17.2988 22.2132 18.0989 22.2132 19.0767C22.2132 20.0545 23.0133 20.8546 23.9911 20.8546C24.9689 20.8546 25.769 20.0545 25.769 19.0767C25.769 18.0989 24.9689 17.2988 23.9911 17.2988ZM18.6574 17.2988C17.6796 17.2988 16.8796 18.0989 16.8796 19.0767C16.8796 20.0545 17.6796 20.8546 18.6574 20.8546C19.6353 20.8546 20.4353 20.0545 20.4353 19.0767C20.4353 18.0989 19.6353 17.2988 18.6574 17.2988Z" fill="white"/>
</svg>
