<svg width="18" height="25" viewBox="0 0 18 25" fill="none" xmlns="http://www.w3.org/2000/svg">
<path d="M16.5 7.54805C16.5 7.30494 16.421 7.07178 16.2803 6.89987C16.1397 6.72797 15.9489 6.63139 15.75 6.63139H15V3.88139C15 3.63827 14.921 3.40512 14.7803 3.23321C14.6397 3.0613 14.4489 2.96472 14.25 2.96472H3.75C3.55109 2.96472 3.36032 3.0613 3.21967 3.23321C3.07902 3.40512 3 3.63827 3 3.88139V6.63139H2.25C2.05109 6.63139 1.86032 6.72797 1.71967 6.89987C1.57902 7.07178 1.5 7.30494 1.5 7.54805V20.3814C1.5 20.6245 1.57902 20.8577 1.71967 21.0296C1.86032 21.2015 2.05109 21.2981 2.25 21.2981H15.75C15.9489 21.2981 16.1397 21.2015 16.2803 21.0296C16.421 20.8577 16.5 20.6245 16.5 20.3814V7.54805ZM4.5 4.79805H13.5V6.63139H4.5V4.79805ZM15 19.4647H3V8.46472H15V19.4647ZM10.5 9.61055C10.3011 9.61055 10.1103 9.70713 9.96967 9.87904C9.82902 10.0509 9.75 10.2841 9.75 10.5272V12.9876C9.50981 12.879 9.25608 12.8219 9 12.8189C8.55499 12.8189 8.11998 12.9802 7.74997 13.2823C7.37996 13.5845 7.09157 14.014 6.92127 14.5165C6.75097 15.019 6.70642 15.5719 6.79323 16.1054C6.88005 16.6388 7.09434 17.1288 7.40901 17.5134C7.72368 17.898 8.12459 18.1599 8.56105 18.266C8.9975 18.3722 9.4499 18.3177 9.86104 18.1096C10.2722 17.9014 10.6236 17.5489 10.8708 17.0967C11.118 16.6445 11.25 16.1128 11.25 15.5689V10.5272C11.25 10.4068 11.2306 10.2876 11.1929 10.1764C11.1552 10.0652 11.1 9.96416 11.0303 9.87904C10.9607 9.79392 10.878 9.7264 10.787 9.68033C10.696 9.63426 10.5985 9.61055 10.5 9.61055ZM9 16.4856C8.85166 16.4856 8.70666 16.4318 8.58332 16.3311C8.45998 16.2303 8.36386 16.0872 8.30709 15.9197C8.25032 15.7522 8.23547 15.5679 8.26441 15.3901C8.29335 15.2122 8.36478 15.0489 8.46967 14.9207C8.57456 14.7925 8.7082 14.7052 8.85368 14.6698C8.99917 14.6345 9.14997 14.6526 9.28701 14.722C9.42406 14.7914 9.54119 14.9089 9.6236 15.0596C9.70601 15.2104 9.75 15.3876 9.75 15.5689C9.75 15.812 9.67098 16.0452 9.53033 16.2171C9.38968 16.389 9.19891 16.4856 9 16.4856Z" fill="#FF293F"/>
</svg>
