<svg width="35" height="28" viewBox="0 0 35 28" fill="none" xmlns="http://www.w3.org/2000/svg">
<path d="M16.5257 27.0379C17.617 27.0379 18.4173 26.223 18.4173 25.1462V2.92662C18.4173 1.83529 17.617 0.962219 16.4966 0.962219C15.7545 0.962219 15.2306 1.28234 14.4303 2.039L8.34795 7.7285C8.26064 7.81581 8.14423 7.85946 8.01327 7.85946H3.8953C1.74173 7.85946 0.577637 9.05266 0.577637 11.3081V16.7211C0.577637 18.9765 1.74173 20.1697 3.8953 20.1697H8.01327C8.14423 20.1697 8.24609 20.2134 8.34795 20.3007L14.4303 26.0338C15.1579 26.7323 15.769 27.0379 16.5257 27.0379ZM29.4617 24.375C30.131 24.7824 30.9459 24.6369 31.4115 23.953C33.3032 21.2756 34.409 17.6815 34.409 13.9855C34.409 10.2895 33.3177 6.68082 31.4115 4.01796C30.9459 3.33406 30.131 3.17399 29.4617 3.59598C28.7632 4.03251 28.6613 4.90558 29.1852 5.67679C30.7276 7.94677 31.6152 10.9007 31.6152 13.9855C31.6152 17.0558 30.713 20.0097 29.1852 22.2942C28.6759 23.0654 28.7632 23.9239 29.4617 24.375ZM23.6121 20.4753C24.2378 20.8827 25.0527 20.7372 25.5037 20.097C26.6824 18.5254 27.3808 16.2991 27.3808 13.9855C27.3808 11.6719 26.6824 9.46009 25.5037 7.87401C25.0527 7.23376 24.2378 7.08825 23.6121 7.51023C22.8991 7.97587 22.7536 8.83439 23.3356 9.67835C24.1359 10.8279 24.587 12.3703 24.587 13.9855C24.587 15.6007 24.1214 17.1285 23.3356 18.2926C22.7681 19.1366 22.8991 19.9951 23.6121 20.4753Z" fill="white"/>
</svg>
