<svg width="22" height="28" viewBox="0 0 22 28" fill="none" xmlns="http://www.w3.org/2000/svg">
<path d="M0.679688 23.0875C0.679688 25.689 2.01659 27.038 4.59405 27.038H17.4211C19.9986 27.038 21.3355 25.689 21.3355 23.0875V4.91283C21.3355 2.32333 19.9986 0.962341 17.4211 0.962341H4.59405C2.01659 0.962341 0.679688 2.32333 0.679688 4.91283V23.0875ZM3.04035 22.943V5.05736C3.04035 3.93725 3.61847 3.323 4.78675 3.323H17.2163C18.3846 3.323 18.9748 3.93725 18.9748 5.05736V22.943C18.9748 24.0631 18.3846 24.6773 17.2163 24.6773H4.78675C3.61847 24.6773 3.04035 24.0631 3.04035 22.943ZM5.88277 7.83957C6.50907 7.83957 7.00288 7.33371 7.00288 6.71946C7.00288 6.09316 6.50907 5.59935 5.88277 5.59935C5.26852 5.59935 4.76266 6.10521 4.76266 6.71946C4.76266 7.33371 5.26852 7.83957 5.88277 7.83957ZM9.19492 7.50233H16.4696C16.9032 7.50233 17.2525 7.15305 17.2525 6.71946C17.2525 6.28587 16.9032 5.93659 16.4696 5.93659H9.19492C8.76133 5.93659 8.41205 6.28587 8.41205 6.71946C8.41205 7.15305 8.76133 7.50233 9.19492 7.50233ZM5.88277 11.4287C6.50907 11.4287 7.00288 10.9229 7.00288 10.3086C7.00288 9.68233 6.50907 9.20056 5.88277 9.20056C5.25648 9.20056 4.76266 9.69437 4.76266 10.3086C4.76266 10.9229 5.25648 11.4287 5.88277 11.4287ZM9.19492 11.0915H16.4696C16.9152 11.0915 17.2525 10.7422 17.2525 10.3086C17.2525 9.87504 16.9152 9.5378 16.4696 9.5378H9.19492C8.74929 9.5378 8.41205 9.87504 8.41205 10.3086C8.41205 10.7422 8.74929 11.0915 9.19492 11.0915ZM5.88277 15.1986C6.50907 15.1986 7.00288 14.6927 7.00288 14.0785C7.00288 13.4522 6.50907 12.9463 5.88277 12.9463C5.26852 12.9463 4.76266 13.4642 4.76266 14.0785C4.76266 14.6807 5.26852 15.1986 5.88277 15.1986ZM9.19492 14.8613H16.4696C16.9032 14.8613 17.2525 14.5 17.2525 14.0785C17.2525 13.6449 16.9152 13.2956 16.4696 13.2956H9.19492C8.74929 13.2956 8.41205 13.6449 8.41205 14.0785C8.41205 14.5 8.76133 14.8613 9.19492 14.8613Z" fill="black"/>
</svg>
