<svg width="33" height="32" viewBox="0 0 33 32" fill="none" xmlns="http://www.w3.org/2000/svg">
<path d="M29.6922 7.77583C30.3189 7.38416 30.3189 6.4715 29.6922 6.07983L21.9123 1.21741C21.2463 0.80113 20.3823 1.27997 20.3823 2.06541V11.7902C20.3823 12.5757 21.2463 13.0545 21.9123 12.6382L29.6922 7.77583Z" fill="black"/>
<path d="M3.22333 25.1092C2.59666 24.7175 2.59667 23.8049 3.22333 23.4132L11.0032 18.5508C11.6693 18.1345 12.5332 18.6133 12.5332 19.3988L12.5332 29.1236C12.5332 29.9091 11.6693 30.3879 11.0032 29.9716L3.22333 25.1092Z" fill="black"/>
<path d="M5.71582 14.6667V14.6667C5.71582 10.2484 9.29754 6.66669 13.7158 6.66669V6.66669H20.3825" stroke="black" stroke-width="2" stroke-linecap="round" stroke-linejoin="round"/>
<path d="M25.7158 16V16C25.7158 20.4183 22.1341 24 17.7158 24V24H11.0492" stroke="black" stroke-width="2" stroke-linecap="round" stroke-linejoin="round"/>
</svg>
