<svg width="34" height="20" viewBox="0 0 34 20" fill="none" xmlns="http://www.w3.org/2000/svg">
<path d="M2.09206 19.4283C2.61002 19.4283 3.05734 19.2753 3.56352 18.9692L15.6294 11.8827C16.324 11.4707 16.7595 10.988 16.9126 10.4112V17.2034C16.9126 18.6396 17.7837 19.4283 18.8196 19.4283C19.3375 19.4283 19.7731 19.2753 20.291 18.9692L32.3569 11.8827C33.2398 11.3647 33.6871 10.729 33.6871 9.94034C33.6871 9.13987 33.2516 8.53952 32.3569 8.00979L20.291 0.923266C19.7731 0.617204 19.3257 0.464172 18.8078 0.464172C17.7719 0.464172 16.9126 1.25287 16.9126 2.68901V9.45771C16.7595 8.89267 16.3357 8.4218 15.6294 8.00979L3.56352 0.923266C3.05734 0.617204 2.61002 0.464172 2.09206 0.464172C1.05616 0.464172 0.185059 1.25287 0.185059 2.68901V17.2034C0.185059 18.6396 1.05616 19.4283 2.09206 19.4283Z" fill="white"/>
</svg>
