<svg width="34" height="34" viewBox="0 0 34 34" fill="none" xmlns="http://www.w3.org/2000/svg">
<path d="M9.03869 12.9365H11.1987C12.2834 12.9365 12.921 12.2895 12.921 11.1667V9.09231C12.921 7.97901 12.2834 7.32245 11.1987 7.32245H9.03869C7.96345 7.32245 7.31641 7.97901 7.31641 9.09231V11.1667C7.31641 12.2895 7.96345 12.9365 9.03869 12.9365ZM15.9088 12.9365H18.0688C19.1535 12.9365 19.791 12.2895 19.791 11.1667V9.09231C19.791 7.97901 19.1535 7.32245 18.0688 7.32245H15.9088C14.824 7.32245 14.1865 7.97901 14.1865 9.09231V11.1667C14.1865 12.2895 14.824 12.9365 15.9088 12.9365ZM22.7884 12.9365H24.9484C26.0236 12.9365 26.6706 12.2895 26.6706 11.1667V9.09231C26.6706 7.97901 26.0236 7.32245 24.9484 7.32245H22.7884C21.7036 7.32245 21.0566 7.97901 21.0566 9.09231V11.1667C21.0566 12.2895 21.7036 12.9365 22.7884 12.9365ZM16.1276 11.4711C15.8136 11.4711 15.6519 11.2999 15.6519 10.9573V9.29213C15.6519 8.96861 15.8136 8.79733 16.1276 8.79733H17.8404C18.1544 8.79733 18.3257 8.96861 18.3257 9.29213V10.9573C18.3257 11.2999 18.1544 11.4711 17.8404 11.4711H16.1276ZM23.0072 11.4711C22.6932 11.4711 22.5219 11.2999 22.5219 10.9573V9.29213C22.5219 8.96861 22.6932 8.79733 23.0072 8.79733H24.7105C25.034 8.79733 25.1958 8.96861 25.1958 9.29213V10.9573C25.1958 11.2999 25.034 11.4711 24.7105 11.4711H23.0072ZM9.03869 19.6068H11.1987C12.2834 19.6068 12.921 18.9693 12.921 17.856V15.7626C12.921 14.6493 12.2834 14.0117 11.1987 14.0117H9.03869C7.96345 14.0117 7.31641 14.6493 7.31641 15.7626V17.856C7.31641 18.9693 7.96345 19.6068 9.03869 19.6068ZM15.9088 19.6068H18.0688C19.1535 19.6068 19.791 18.9693 19.791 17.856V15.7626C19.791 14.6493 19.1535 14.0117 18.0688 14.0117H15.9088C14.824 14.0117 14.1865 14.6493 14.1865 15.7626V17.856C14.1865 18.9693 14.824 19.6068 15.9088 19.6068ZM22.7884 19.6068H24.9484C26.0236 19.6068 26.6706 18.9693 26.6706 17.856V15.7626C26.6706 14.6493 26.0236 14.0117 24.9484 14.0117H22.7884C21.7036 14.0117 21.0566 14.6493 21.0566 15.7626V17.856C21.0566 18.9693 21.7036 19.6068 22.7884 19.6068ZM9.26705 18.1414C8.94353 18.1414 8.79129 17.9701 8.79129 17.6371V15.9719C8.79129 15.6389 8.94353 15.4676 9.26705 15.4676H10.9703C11.2843 15.4676 11.4651 15.6389 11.4651 15.9719V17.6371C11.4651 17.9701 11.2843 18.1414 10.9703 18.1414H9.26705ZM16.1276 18.1414C15.8136 18.1414 15.6519 17.9701 15.6519 17.6371V15.9719C15.6519 15.6389 15.8136 15.4676 16.1276 15.4676H17.8404C18.1544 15.4676 18.3257 15.6389 18.3257 15.9719V17.6371C18.3257 17.9701 18.1544 18.1414 17.8404 18.1414H16.1276ZM23.0072 18.1414C22.6932 18.1414 22.5219 17.9701 22.5219 17.6371V15.9719C22.5219 15.6389 22.6932 15.4676 23.0072 15.4676H24.7105C25.034 15.4676 25.1958 15.6389 25.1958 15.9719V17.6371C25.1958 17.9701 25.034 18.1414 24.7105 18.1414H23.0072ZM9.03869 26.2866H11.1987C12.2834 26.2866 12.921 25.6395 12.921 24.5262V22.4424C12.921 21.3291 12.2834 20.682 11.1987 20.682H9.03869C7.96345 20.682 7.31641 21.3291 7.31641 22.4424V24.5262C7.31641 25.6395 7.96345 26.2866 9.03869 26.2866ZM15.9088 26.2866H18.0688C19.1535 26.2866 19.791 25.6395 19.791 24.5262V22.4424C19.791 21.3291 19.1535 20.682 18.0688 20.682H15.9088C14.824 20.682 14.1865 21.3291 14.1865 22.4424V24.5262C14.1865 25.6395 14.824 26.2866 15.9088 26.2866ZM22.7884 26.2866H24.9484C26.0236 26.2866 26.6706 25.6395 26.6706 24.5262V22.4424C26.6706 21.3291 26.0236 20.682 24.9484 20.682H22.7884C21.7036 20.682 21.0566 21.3291 21.0566 22.4424V24.5262C21.0566 25.6395 21.7036 26.2866 22.7884 26.2866ZM9.26705 24.8212C8.94353 24.8212 8.79129 24.6499 8.79129 24.3074V22.6517C8.79129 22.3187 8.94353 22.1474 9.26705 22.1474H10.9703C11.2843 22.1474 11.4651 22.3187 11.4651 22.6517V24.3074C11.4651 24.6499 11.2843 24.8212 10.9703 24.8212H9.26705ZM16.1276 24.8212C15.8136 24.8212 15.6519 24.6499 15.6519 24.3074V22.6517C15.6519 22.3187 15.8136 22.1474 16.1276 22.1474H17.8404C18.1544 22.1474 18.3257 22.3187 18.3257 22.6517V24.3074C18.3257 24.6499 18.1544 24.8212 17.8404 24.8212H16.1276ZM23.0072 24.8212C22.6932 24.8212 22.5219 24.6499 22.5219 24.3074V22.6517C22.5219 22.3187 22.6932 22.1474 23.0072 22.1474H24.7105C25.034 22.1474 25.1958 22.3187 25.1958 22.6517V24.3074C25.1958 24.6499 25.034 24.8212 24.7105 24.8212H23.0072Z" fill="white" fill-opacity="0.84"/>
</svg>
