<svg width="21" height="27" viewBox="0 0 21 27" fill="none" xmlns="http://www.w3.org/2000/svg">
<path d="M2.25581 26.9841H5.93836C7.42706 26.9841 8.19491 26.2162 8.19491 24.7276V3.16499C8.19491 1.64496 7.42706 0.924118 5.93836 0.908447H2.25581C0.767111 0.908447 -0.000741459 1.6763 -0.000741459 3.16499V24.7276C-0.0164119 26.2162 0.751441 26.9841 2.25581 26.9841ZM14.1654 26.9841H17.8322C19.3209 26.9841 20.0888 26.2162 20.0888 24.7276V3.16499C20.0888 1.64496 19.3209 0.908447 17.8322 0.908447H14.1654C12.661 0.908447 11.9088 1.6763 11.9088 3.16499V24.7276C11.9088 26.2162 12.661 26.9841 14.1654 26.9841Z" fill="white"/>
</svg>
