<svg width="18" height="19" viewBox="0 0 18 19" fill="none" xmlns="http://www.w3.org/2000/svg">
<path d="M16.4402 9.19988C14.9252 5.68238 12.0752 3.49988 9.00017 3.49988C5.92517 3.49988 3.07517 5.68238 1.56017 9.19988C1.51887 9.2945 1.49756 9.39664 1.49756 9.49988C1.49756 9.60312 1.51887 9.70525 1.56017 9.79988C3.07517 13.3174 5.92517 15.4999 9.00017 15.4999C12.0752 15.4999 14.9252 13.3174 16.4402 9.79988C16.4815 9.70525 16.5028 9.60312 16.5028 9.49988C16.5028 9.39664 16.4815 9.2945 16.4402 9.19988ZM9.00017 13.9999C6.62267 13.9999 4.37267 12.2824 3.07517 9.49988C4.37267 6.71738 6.62267 4.99988 9.00017 4.99988C11.3777 4.99988 13.6277 6.71738 14.9252 9.49988C13.6277 12.2824 11.3777 13.9999 9.00017 13.9999ZM9.00017 6.49988C8.40683 6.49988 7.82681 6.67583 7.33346 7.00547C6.84012 7.33512 6.4556 7.80365 6.22854 8.35183C6.00147 8.90001 5.94206 9.50321 6.05782 10.0851C6.17357 10.6671 6.4593 11.2016 6.87885 11.6212C7.29841 12.0408 7.83296 12.3265 8.4149 12.4422C8.99685 12.558 9.60005 12.4986 10.1482 12.2715C10.6964 12.0445 11.1649 11.6599 11.4946 11.1666C11.8243 10.6732 12.0002 10.0932 12.0002 9.49988C12.0002 8.70423 11.6841 7.94117 11.1215 7.37856C10.5589 6.81595 9.79582 6.49988 9.00017 6.49988ZM9.00017 10.9999C8.7035 10.9999 8.41349 10.9119 8.16682 10.7471C7.92015 10.5823 7.72789 10.348 7.61435 10.0739C7.50082 9.79982 7.47112 9.49822 7.529 9.20724C7.58687 8.91627 7.72974 8.649 7.93951 8.43922C8.14929 8.22944 8.41657 8.08658 8.70754 8.0287C8.99851 7.97082 9.30011 8.00053 9.5742 8.11406C9.84829 8.22759 10.0826 8.41985 10.2474 8.66652C10.4122 8.9132 10.5002 9.20321 10.5002 9.49988C10.5002 9.8977 10.3421 10.2792 10.0608 10.5605C9.77953 10.8418 9.398 10.9999 9.00017 10.9999Z" fill="#7C8088"/>
</svg>
