<svg width="18" height="19" viewBox="0 0 18 19" fill="none" xmlns="http://www.w3.org/2000/svg">
<path d="M14.25 3.5H3.75C3.15326 3.5 2.58097 3.73705 2.15901 4.15901C1.73705 4.58097 1.5 5.15326 1.5 5.75V13.25C1.5 13.8467 1.73705 14.419 2.15901 14.841C2.58097 15.2629 3.15326 15.5 3.75 15.5H14.25C14.8467 15.5 15.419 15.2629 15.841 14.841C16.2629 14.419 16.5 13.8467 16.5 13.25V5.75C16.5 5.15326 16.2629 4.58097 15.841 4.15901C15.419 3.73705 14.8467 3.5 14.25 3.5ZM13.9425 5L9.5325 9.41C9.46278 9.4803 9.37983 9.53609 9.28843 9.57417C9.19704 9.61225 9.09901 9.63185 9 9.63185C8.90099 9.63185 8.80296 9.61225 8.71157 9.57417C8.62017 9.53609 8.53722 9.4803 8.4675 9.41L4.0575 5H13.9425ZM15 13.25C15 13.4489 14.921 13.6397 14.7803 13.7803C14.6397 13.921 14.4489 14 14.25 14H3.75C3.55109 14 3.36032 13.921 3.21967 13.7803C3.07902 13.6397 3 13.4489 3 13.25V6.0575L7.41 10.4675C7.83188 10.8889 8.40375 11.1255 9 11.1255C9.59625 11.1255 10.1681 10.8889 10.59 10.4675L15 6.0575V13.25Z" fill="#DEE5F3" fill-opacity="0.56"/>
</svg>
