<svg width="18" height="19" viewBox="0 0 18 19" fill="none" xmlns="http://www.w3.org/2000/svg">
<path d="M9 10.25C8.80109 10.25 8.61032 10.329 8.46967 10.4697C8.32902 10.6103 8.25 10.8011 8.25 11V13.25C8.25 13.4489 8.32902 13.6397 8.46967 13.7803C8.61032 13.921 8.80109 14 9 14C9.19891 14 9.38968 13.921 9.53033 13.7803C9.67098 13.6397 9.75 13.4489 9.75 13.25V11C9.75 10.8011 9.67098 10.6103 9.53033 10.4697C9.38968 10.329 9.19891 10.25 9 10.25ZM12.75 7.25V5.75C12.75 4.75544 12.3549 3.80161 11.6517 3.09835C10.9484 2.39509 9.99456 2 9 2C8.00544 2 7.05161 2.39509 6.34835 3.09835C5.64509 3.80161 5.25 4.75544 5.25 5.75V7.25C4.65326 7.25 4.08097 7.48705 3.65901 7.90901C3.23705 8.33097 3 8.90326 3 9.5V14.75C3 15.3467 3.23705 15.919 3.65901 16.341C4.08097 16.7629 4.65326 17 5.25 17H12.75C13.3467 17 13.919 16.7629 14.341 16.341C14.7629 15.919 15 15.3467 15 14.75V9.5C15 8.90326 14.7629 8.33097 14.341 7.90901C13.919 7.48705 13.3467 7.25 12.75 7.25ZM6.75 5.75C6.75 5.15326 6.98705 4.58097 7.40901 4.15901C7.83097 3.73705 8.40326 3.5 9 3.5C9.59674 3.5 10.169 3.73705 10.591 4.15901C11.0129 4.58097 11.25 5.15326 11.25 5.75V7.25H6.75V5.75ZM13.5 14.75C13.5 14.9489 13.421 15.1397 13.2803 15.2803C13.1397 15.421 12.9489 15.5 12.75 15.5H5.25C5.05109 15.5 4.86032 15.421 4.71967 15.2803C4.57902 15.1397 4.5 14.9489 4.5 14.75V9.5C4.5 9.30109 4.57902 9.11032 4.71967 8.96967C4.86032 8.82902 5.05109 8.75 5.25 8.75H12.75C12.9489 8.75 13.1397 8.82902 13.2803 8.96967C13.421 9.11032 13.5 9.30109 13.5 9.5V14.75Z" fill="#7C8088"/>
</svg>
