<svg width="41" height="41" viewBox="0 0 41 41" fill="none" xmlns="http://www.w3.org/2000/svg">
<rect x="0.5" y="0.5" width="40" height="40" rx="7" fill="#81E930"/>
<g clip-path="url(#clip0_280_3596)">
<path d="M30.3225 17.5H28.1355V19.677H25.9585V21.864H28.1355V24.041H30.3225V21.864H32.4995V19.677H30.3225V17.5Z" fill="black"/>
<path d="M16 28C20.328 28 23.203 24.962 23.203 20.674C23.203 20.183 23.152 19.804 23.081 19.426H16.001V22.004H20.258C20.084 23.099 18.969 25.237 16.001 25.237C13.444 25.237 11.356 23.119 11.356 20.5C11.356 17.881 13.443 15.762 16.001 15.762C17.464 15.762 18.436 16.386 18.989 16.918L21.025 14.964C19.714 13.737 18.026 13 16 13C11.856 13 8.5 16.356 8.5 20.5C8.5 24.644 11.856 28 16 28Z" fill="black"/>
</g>
<defs>
<clipPath id="clip0_280_3596">
<rect width="24" height="24" fill="white" transform="translate(8.5 8.5)"/>
</clipPath>
</defs>
</svg>
